<?xml version="1.0" encoding="utf-8"?>
<!-- Generator: Adobe Illustrator 27.5.0, SVG Export Plug-In . SVG Version: 6.00 Build 0)  -->
<svg version="1.1" id="Capa_1" xmlns="http://www.w3.org/2000/svg" xmlns:xlink="http://www.w3.org/1999/xlink" x="0px" y="0px"
	 viewBox="0 0 2122 2122" style="enable-background:new 0 0 2122 2122;" xml:space="preserve">
<g>
	
		<rect x="206.33" y="633.495" transform="matrix(0.6859 -0.7277 0.7277 0.6859 -438.6855 1104.9485)" style="fill:#95A63A;" width="1708.661" height="854.33"/>
	<path style="fill:#BFCB45;" d="M1764.283,728.627c-0.303-8.902,0.272-17.827,1.732-26.621c1.818-10.959,4.555-23.472,15.074-29.307
		c1.416-0.786,2.768,0.246,2.948,1.692c1.379,11.09-3.747,21.411-5.657,32.131c-1.255,7.044-1.624,14.141-1.544,21.248
		c3.93-0.25,7.787-0.479,11.583-0.69c0.215-1.241,0.426-2.486,0.712-3.695c0.383-1.617,0.835-3.228,1.395-4.794
		c0.731-2.046,1.978-3.565,3.356-5.216c1.25-1.498,3.797-1.629,5.393-0.695c1.862,1.089,2.317,3.03,2.046,5.026
		c-0.182,1.334-0.299,2.883-0.795,4.29c-0.485,1.374-0.907,2.771-1.269,4.183c-0.033,0.127-0.043,0.226-0.074,0.351
		c45.941-2.194,81.419-1.538,107.047-0.052c-9.639-10.646-19.3-21.273-28.936-31.917c-15.236-16.83-31.557-33.021-45.633-50.815
		c-0.887-1.121,0.295-3.171,1.676-2.172c18.116,13.113,34.337,29.344,50.236,45.045c13.357,13.191,26.05,26.887,38.418,40.951
		c23.943,1.974,35.512,4.416,35.512,4.416l-621.676-586.003L163.819,1389.334c0,0,29.497-23.794,82.245-61.953
		c0.869-0.891,1.729-1.792,2.599-2.682c33.923-34.744,67.963-69.375,101.867-104.138c17.078-17.51,33.767-35.53,51.291-52.591
		c17.53-17.066,35.298-33.956,52.855-51.028l0.489,0.489c-9.402,10.55-18.86,21.044-28.356,31.509
		c-9.231,10.175-17.832,20.862-27.236,30.868c-36.178,38.496-72.302,77.04-108.46,115.552
		c29.987-20.953,64.656-44.493,103.471-69.715l845.448-896.915c0.783,0.772,1.464,1.607,2.269,2.365
		c56.237,53.01,144.8,50.394,197.809-5.843l332.366,313.295c-23.93,26.288-36.013,59.304-36.443,92.373
		C1745.793,730.041,1755.199,729.283,1764.283,728.627z"/>
	<path style="fill:#FFF4E0;" d="M1772.477,638.548l-332.366-313.295c-53.01,56.237-141.572,58.853-197.809,5.843
		c-0.804-0.758-1.486-1.592-2.269-2.365l-845.448,896.915l-52.305,55.49c0.817,0.735,1.69,1.367,2.495,2.125
		c56.237,53.01,58.853,141.572,5.842,197.81c-0.568,0.603-1.197,1.111-1.774,1.702l332.456,313.379
		c53.187-54.496,140.401-56.584,196.036-4.142c0.804,0.758,1.487,1.593,2.268,2.364l902.806-957.764
		c-0.817-0.735-1.691-1.367-2.495-2.124c-29.662-27.961-44.371-65.797-43.879-103.564
		C1736.465,697.852,1748.547,664.836,1772.477,638.548z"/>
	<path style="fill:#E4D5C0;" d="M1779.914,834.486c-12.594-11.872-22.349-25.58-29.534-40.251l-350.847,372.205
		c-8.537,54.82-31.795,105.815-70.651,147.036c-38.856,41.221-88.39,67.449-142.61,79.206L889.764,1707.24
		c-0.781-0.772-1.464-1.606-2.268-2.365c-55.634-52.441-142.848-50.354-196.035,4.142l-307.084-289.463
		c-5.652,22.323-16.844,43.571-33.759,61.517c-0.569,0.603-1.197,1.111-1.774,1.702l332.455,313.379
		c53.188-54.496,140.402-56.584,196.036-4.142c0.804,0.758,1.486,1.593,2.268,2.364l902.806-957.764
		C1781.592,835.875,1780.718,835.244,1779.914,834.486z"/>
	<path style="fill:#95A63A;" d="M1399.532,1166.439c17.353-111.428-26.425-238.737-125.829-332.437
		c-148.308-139.798-364.06-151.789-481.894-26.782c-117.834,125.008-93.13,339.676,55.178,479.474
		c99.404,93.7,229.075,129.887,339.285,105.987c54.22-11.758,103.754-37.985,142.61-79.206
		C1367.737,1272.255,1390.995,1221.259,1399.532,1166.439z"/>
	<path style="fill:#95A63A;" d="M1492.304,602.739c29.598,27.9,30.975,74.512,3.075,104.111
		c-27.9,29.598-74.512,30.975-104.11,3.075c-29.598-27.9-30.975-74.512-3.075-104.11
		C1416.094,576.217,1462.705,574.84,1492.304,602.739z"/>
	<path style="fill:#95A63A;" d="M710.967,1431.641c29.598,27.9,30.975,74.512,3.075,104.11
		c-27.9,29.599-74.512,30.975-104.111,3.075c-29.598-27.9-30.975-74.512-3.075-104.111
		C634.757,1405.118,681.368,1403.741,710.967,1431.641z"/>
	<path style="fill:#FFD656;" d="M1310.943,1220.188c-13.621-12.015-27.241-24.029-40.862-36.043
		c4.637-10.773,8.082-22.039,10-33.695c4.315-26.217,4.479-52.425-2.623-78.266c-6.559-23.866-18.927-46.067-35.911-64.073
		c-16.839-17.852-39.199-30.86-62.713-37.636c-22.831-6.579-48.938-8.208-71.968-1.565c-38.998,11.247-65.022,42.044-95.356,66.735
		c-6.242,4.565-12.78,8.663-19.733,12.052c-3.539,1.223-7.137,2.23-10.804,2.995c-4.063,0.261-8.121,0.258-12.179-0.025
		c-7.344-1.358-14.557-3.353-21.558-5.954c-5.13-2.474-10.049-5.32-14.735-8.557c-3.51-3.049-6.798-6.323-9.85-9.829
		c-2.85-4.142-5.395-8.468-7.608-12.98c-2.177-5.969-3.841-12.089-5.005-18.334c-0.724-8.056-0.697-16.137,0.04-24.19
		c1.582-9.015,4.005-17.834,7.236-26.397c3.595-7.66,7.842-14.971,12.747-21.865c4.495-5.309,9.394-10.234,14.7-14.735
		c4.927-3.431,10.104-6.455,15.51-9.07c5.538-2,11.209-3.543,16.994-4.642c8.831-0.735,17.681-0.515,26.495,0.643
		c-2.691-0.361-5.383-0.723-8.075-1.085c10.589,1.414,19.862,1.494,29.592-4.2c8.309-4.862,16.233-14.389,18.409-23.939
		c2.335-10.254,1.83-21.764-4.039-30.866c-5.232-8.117-13.909-16.988-23.939-18.409c-24.096-3.412-47.823-3.82-71.427,3.401
		c-15.829,4.843-30.226,12.171-43.465,21.54c-6.465-5.703-12.931-11.406-19.397-17.109c-2.21-1.95-4.42-3.899-6.629-5.848
		c-3.629-3.906-7.926-6.667-12.892-8.282c-4.773-2.508-9.918-3.659-15.433-3.45c-5.515-0.208-10.66,0.942-15.433,3.45
		c-4.966,1.615-9.263,4.376-12.892,8.282c-7.007,7.634-12.21,17.656-11.732,28.324c0.458,10.234,3.785,21.314,11.732,28.324
		c10.21,9.006,20.419,18.011,30.628,27.017c-8.063,15.954-13.74,33.078-16.445,50.14c-6.329,39.919-1.781,83.147,22.545,116.775
		c13.204,18.253,29.599,33.913,49.9,44.135c22.863,11.511,49.724,19.525,75.539,17.95c27.809-1.697,53.321-11.952,75.346-28.818
		c18.363-14.06,34.657-30.436,52.638-44.896c5.166-3.69,10.561-7.013,16.25-9.833c2.793-0.948,5.628-1.735,8.509-2.363
		c4.448-0.242,8.9-0.148,13.341,0.225c6.124,1.115,12.117,2.703,17.971,4.807c4.131,2.033,8.119,4.31,11.943,6.867
		c4.575,3.875,8.772,8.124,12.627,12.711c2.97,4.422,5.602,9.039,7.931,13.833c2.515,6.828,4.426,13.825,5.738,20.976
		c0.783,8.708,0.743,17.421-0.079,26.119c-1.294,7.246-3.129,14.332-5.635,21.253c-3.468,7.258-7.575,14.153-12.24,20.707
		c-6.264,7.503-13.176,14.379-20.688,20.624c-7.585,5.421-15.591,10.15-24.029,14.118c-6.945,2.577-14.062,4.564-21.351,5.913
		c-5.371,0.413-10.741,0.429-16.113,0.033c-4.569-0.908-9.046-2.118-13.438-3.663c-0.639-0.31-1.291-0.589-1.926-0.911
		c-18.67-9.461-44.289-5.533-54.805,14.371c-9.638,18.242-5.585,44.692,14.37,54.805c23.433,11.875,49.795,18.143,76.11,15.117
		c26.545-3.052,51.748-11.187,74.427-25.628c8.704-5.542,17.067-11.856,24.966-18.771c8.497,7.495,16.994,14.991,25.491,22.486
		c2.21,1.95,4.42,3.899,6.63,5.848c3.628,3.906,7.925,6.667,12.892,8.282c4.774,2.508,9.918,3.659,15.433,3.45
		c5.514,0.208,10.659-0.942,15.433-3.45c4.966-1.615,9.263-4.376,12.891-8.282c7.008-7.634,12.21-17.656,11.733-28.324
		C1322.217,1238.278,1318.89,1227.198,1310.943,1220.188z"/>
	<path style="fill:#FFFFFF;" d="M989.716,817.468c-31.547-1.11-64.35,12.975-89.555,31.587
		c-12.083-13.347-26.935-26.663-43.654-33.135c-14.574-5.642-33.393-2.935-40.316,12.761c-3.043,6.9,7.357,12.495,10.432,5.522
		c6.375-14.452,23.818-9.243,34.227-2.942c13.04,7.895,24.459,18.506,34.429,29.963c1.521,1.746,5.235,2.215,7.111,0.751
		c21.786-17.016,48.412-29.468,76.14-32.282c12.094-1.228,25.743-0.487,35.806,7.137c8.928,6.766,14.078,17.868,10.581,28.834
		c-2.307,7.233,9.202,9.863,11.501,2.655c4.001-12.546-0.347-25.736-8.927-35.327C1017.911,822.283,1003.718,817.96,989.716,817.468
		z"/>
	<path style="fill:#FFFFFF;" d="M1123.45,973.013c-24.278,4.332-44.894,16.688-63.708,32.19
		c-19.882,16.383-38.063,35.706-61.602,46.987c-23.208,11.122-56.082,12.124-72.107-11.553c-4.249-6.278-14.349-0.168-10.088,6.13
		c11.896,17.575,32.646,25.724,53.466,24.97c23.772-0.861,45.149-13.568,63.292-27.99c20.92-16.63,39.397-36.894,63.409-49.257
		c20.391-10.498,44.51-14.087,67.094-10.181c28.074,4.857,53.236,21.034,69.742,44.184c4.39,6.156,14.5,0.059,10.088-6.129
		C1215.888,984.285,1169.612,964.775,1123.45,973.013z"/>
	<path style="fill:#FFFFFF;" d="M1263.055,1204.871c9.299,9.183,18.6,18.366,27.9,27.549c4.214,4.16,8.823,8.153,12.629,12.697
		c2.966,3.542,5.203,8.033,2.33,12.244c-1.798,2.635-0.135,6.604,2.454,7.977c3.074,1.631,6.174,0.188,7.978-2.455
		c8.719-12.779-3.55-25.476-12.13-33.95c-11.022-10.883-22.045-21.766-33.066-32.65
		C1265.742,1190.946,1257.649,1199.535,1263.055,1204.871z"/>
	<path style="fill:#FFFFFF;" d="M1202.96,1161.628c-16.773,35.469-53.14,60.529-93.134,52.943
		c-19.127-3.629-39.749-10.297-58.377-0.925c-14.84,7.466-23.05,25.93-14.591,41.067c3.712,6.645,13.785,0.489,10.088-6.128
		c-4.229-7.567-0.48-16.939,5.969-22.004c7.842-6.158,18.962-6.649,28.472-5.558c18.92,2.17,36.372,8.972,55.693,6.131
		c33.693-4.954,62.026-29.795,76.312-60.005C1216.625,1160.314,1206.219,1154.734,1202.96,1161.628z"/>
	<path style="fill:#627B3B;" d="M813.286,798.51c10.295-13.52,27.952-16.674,43.657-13c8.381,1.96,16.024,5.905,23.012,10.866
		c6.397,4.541,12.959,12.313,21.364,12.003c1.203-0.044,2.162-0.968,2.189-2.19c0.227-10-11.574-17.071-19.247-21.435
		c-8.8-5.005-18.44-8.484-28.538-9.521c-8.263-0.849-18.359,1.396-25.837,4.938c-7.806,3.697-14.338,9.649-18.391,17.292
		C810.853,798.674,812.496,799.548,813.286,798.51z"/>
	<path style="fill:#627B3B;" d="M1066.153,821.268c-6.498-22.892-27.725-37.586-50.079-43.007
		c-30.586-7.418-61.622,3.076-90.115,13.617c-6.456,2.388-3.761,12.758,2.879,10.445c25.93-9.03,53.675-18.456,81.54-15.231
		c22.16,2.565,43.658,14.59,53.879,34.975C1064.789,823.128,1066.47,822.386,1066.153,821.268z"/>
	<path style="fill:#627B3B;" d="M948.474,1015.58c9.258,21.213,33.896,12.377,49.072,4.253
		c19.705-10.549,36.552-25.694,54.276-39.121c17.303-13.107,35.742-25.487,56.818-31.537c19.442-5.581,43.518-4.906,61.688,4.569
		c2.129,1.111,4.533-1.664,2.653-3.439c-31.525-29.758-76.998-14.641-108.64,6.763c-18.055,12.213-34.259,26.89-51.871,39.702
		c-8.964,6.521-18.352,12.811-28.266,17.799c-9.462,4.761-24.576,9.09-32.147-1.083
		C950.452,1011.331,947.401,1013.122,948.474,1015.58z"/>
	<path style="fill:#627B3B;" d="M1299.13,1181.014c12.508,13.376,26.058,25.632,39.363,38.207
		c5.333,5.041,10.073,10.149,11.081,17.709c1.027,7.696,2.378,14.93,2.375,22.752c-0.001,3.156,4.173,3.379,5.207,0.704
		c2.898-7.503,7.14-16.162,6.109-24.377c-1.175-9.369-5.456-17.035-12.579-23.2c-15.128-13.096-31.04-25.674-47.367-37.224
		C1300.009,1173.242,1296.546,1178.251,1299.13,1181.014z"/>
	<path style="fill:#627B3B;" d="M1079.838,926.071c7.26-5.099,15.971-7.93,24.736-9.078c4.161-0.545,8.513-0.553,12.668,0.05
		c4.745,0.688,9.367,3.277,13.995,1.026c1.086-0.528,1.875-2.278,1.4-3.441c-2.26-5.538-8.483-6.071-13.774-6.683
		c-5.152-0.596-10.334-0.316-15.44,0.544c-10.06,1.695-19.045,7.067-25.959,14.506
		C1076.021,924.546,1077.938,927.405,1079.838,926.071z"/>
	<path style="fill:#627B3B;" d="M964.548,763.377c5.311-2.083,11.087-3.597,16.786-4.03c5.853-0.444,11.696,0.333,17.53,0.68
		c1.546,0.091,2.919-1.268,3.093-2.731c0.198-1.659-0.755-2.865-2.255-3.456c-6.16-2.426-12.844-2.14-19.26-1.088
		c-6.3,1.033-12.18,3.215-17.58,6.624C960.869,760.633,962.135,764.323,964.548,763.377z"/>
	<path style="fill:#627B3B;" d="M902.261,1141.305c-28.924-19.726-59.697-37.699-78.883-68.113
		c-10.232-16.221-15.993-34.639-17.508-53.733c-0.757-9.545-0.845-19.167-0.25-28.723c0.607-9.758,3.807-19.937,0.164-29.29
		c-0.713-1.834-3.074-2.867-4.622-1.22c-7.097,7.541-7.284,18.402-8.235,28.295c-1.061,11.028-1.292,22.105-0.046,33.126
		c2.286,20.22,8.458,39.692,19.554,56.844c20.097,31.07,53.162,55.328,87.518,68.29
		C903.301,1148.044,904.904,1143.106,902.261,1141.305z"/>
	<path style="fill:#627B3B;" d="M810.423,1107.886c-2.073-2.1-4.024-4.348-5.651-6.816c-1.742-2.64-3.012-5.46-4.427-8.272
		c-0.693-1.377-1.446-2.715-2.086-4.12l-0.397-0.891c0.397,0.893-0.044-0.12-0.114-0.298c-0.297-0.747-0.576-1.501-0.837-2.262
		c-0.499-1.449-0.934-2.921-1.303-4.408c-0.192-0.777-0.303-1.603-0.553-2.364c-0.476-1.449-1.334-2.43-2.481-3.364
		c-1.268-1.033-2.502-1.586-4.163-1.363c-1.413,0.19-2.983,0.994-3.62,2.366c-0.588,1.267-1.17,2.494-1.234,3.917
		c-0.055,1.221,0.477,2.503,0.886,3.635c0.688,1.898,1.471,3.768,2.324,5.597c1.392,2.988,3.051,5.909,5.022,8.556
		c2.107,2.831,4.873,5.224,7.64,7.394c2.738,2.148,5.554,4.115,8.621,5.77C809.984,1112.007,812.019,1109.503,810.423,1107.886z"/>
	<path style="fill:#627B3B;" d="M999.291,1268.79c5.033,17.05,13.159,33.146,27.389,44.386c15.894,12.555,36.64,19.3,56.461,22.374
		c20.379,3.16,41.001,3.528,61.459,0.879c10.114-1.309,20.119-3.234,29.956-5.937c9.481-2.605,20.247-5.277,27.898-11.751
		c3.111-2.633,0.664-8.6-3.423-8.262c-9.192,0.759-17.964,4.934-26.825,7.32c-8.7,2.343-17.57,4.164-26.506,5.327
		c-18.734,2.436-38.026,2.351-56.705-0.526c-18.248-2.811-37.082-6.517-52.78-16.769c-14.364-9.382-26.079-23.345-35.028-37.84
		C1000.583,1267.011,998.95,1267.633,999.291,1268.79z"/>
	<path style="fill:#627B3B;" d="M1078.795,1357.067c6.53,4.159,13.995,7.91,21.656,9.335c7.906,1.471,16.009,1.882,24.004,0.954
		c3.651-0.424,9.225-0.668,11.71-3.789c1.365-1.714,1.385-4.064-0.045-5.718c-1.632-1.89-3.959-1.797-6.21-1.453
		c-7.858,1.202-15.287,2.483-23.297,1.958c-8.868-0.58-17.846-2.061-26.22-5.079
		C1078.104,1352.451,1076.885,1355.851,1078.795,1357.067z"/>
	<path style="fill:#627B3B;" d="M1404.937,619.111c4.265-1.662,7.947-4.767,11.952-7.035c4.543-2.572,9.501-4.413,14.487-5.958
		c10.18-3.155,20.74-3.336,31.067-0.784c9.493,2.346,18.126,7.351,25.071,14.212c7.067,6.981,13.713,14.835,18.881,23.336
		c0.704,1.159,2.584,0.694,2.577-0.698c-0.052-11.646-4.303-22.327-12.429-30.628c-8.393-8.573-19.202-15.041-30.858-17.985
		c-11.826-2.987-24.921-1.801-36.321,2.357c-5.802,2.116-10.661,5.1-15.548,8.849c-4.081,3.131-8.996,7.7-10.439,12.774
		C1403.134,618.411,1404.014,619.471,1404.937,619.111z"/>
	<path style="fill:#627B3B;" d="M1449.856,619.005c8.063,1.442,15.276,5.244,20.629,10.891c-0.404-0.692-0.807-1.383-1.21-2.076
		c0.339,1.782,1.663,2.949,2.821,4.227c0.398,0.44,0.787,0.888,1.165,1.345l0.561,0.692c-0.383-0.501-0.394-0.512-0.031-0.031
		c1.924,2.574,5.164,3.669,7.949,1.518c2.596-2.006,2.77-5.699,0.547-8.074c-2.271-2.427-4.995-5.44-8.476-5.632
		c0.791,0.214,1.582,0.428,2.374,0.642c-7.523-5.211-16.486-8.311-25.655-8.483C1447.744,613.972,1446.988,618.491,1449.856,619.005
		z"/>
	<path style="fill:#627B3B;" d="M1257.19,317.87c3.879,4.393,7.665,9.354,12.285,12.97c5.591,4.376,11.68,8.25,17.992,11.497
		c12.322,6.338,25.391,9.085,39.169,9.924c27.211,1.656,56.28-0.936,80.604-14.133c10.344-5.613,21.085-13.349,26.391-24.145
		c1.679-3.418,3.732-8.647-0.485-11.186c-4.815-2.898-9.275,3.213-12.395,5.972c-9.322,8.244-18.016,15.827-29.689,20.689
		c-13.112,5.461-27.546,7.907-41.63,9.097c-16.115,1.361-32.12,1.442-47.886-2.5c-7.914-1.978-15.497-4.686-22.792-8.359
		c-6.998-3.524-14.202-6.666-21.005-10.549C1257.281,316.879,1256.849,317.484,1257.19,317.87z"/>
	<path style="fill:#627B3B;" d="M1363.034,320.969c9.396,1.186,18.818,0.643,27.685-2.818c4.508-1.761,8.886-3.84,12.993-6.408
		c4.55-2.846,10.016-6.499,11.942-11.699c1.67-4.51-3.572-9.869-8.122-8.122c-4.494,1.727-7.948,6.021-11.646,9.059
		c-2.726,2.24-6.502,4.674-10.047,6.566c-7.372,3.931-15.191,7.371-23.386,9.121
		C1359.825,317.229,1360.788,320.685,1363.034,320.969z"/>
	<path style="fill:#627B3B;" d="M634.181,1444.177c17.516-7.811,38.389-4.801,54.992,3.792c7.904,4.092,15.658,9.241,21.827,15.695
		c3.109,3.252,6.028,6.99,8.255,10.905c2.195,3.858,3.282,8.285,4.839,12.424c0.742,1.971,3.971,3.038,5.055,0.661
		c4.496-9.851-0.431-21.472-6.871-29.303c-7.301-8.877-17.04-15.42-27.529-19.923c-10.414-4.471-21.974-7.507-33.392-7.113
		c-10.979,0.38-20.325,3.879-28.294,11.413C632.249,1443.498,633.281,1444.577,634.181,1444.177z"/>
	<path style="fill:#627B3B;" d="M666.149,1459.856c7.798,0.26,15.185,3.396,21.077,8.484c2.925,2.525,5.234,5.242,7.141,8.571
		c0.931,1.624,1.83,3.296,2.673,4.968c0.568,1.128,1.024,2.231,1.879,3.191c0.649,0.729,1.367,1.395,2.009,2.135
		c2.384,2.753,6.262,0.296,6.545-2.711c0.265-2.826-0.081-5.031-1.358-7.609c-1.076-2.177-2.454-4.086-4.063-5.903
		c-2.993-3.38-6.65-6.343-10.517-8.664c-7.523-4.515-16.663-6.571-25.387-5.457C664.288,1457.097,664.164,1459.789,666.149,1459.856
		z"/>
	<path style="fill:#627B3B;" d="M343.58,1443.746c16.183-22.86,23.547-49.617,22.732-77.557
		c-0.399-13.674-2.608-27.373-6.677-40.436c-2.045-6.566-4.979-12.891-8.203-18.957c-2.682-5.043-5.283-11.274-11.204-12.931
		c-0.882-0.247-2.11,0.303-2.268,1.288c-0.884,5.513,2.306,9.78,4.573,14.602c2.853,6.068,5.035,12.393,7.205,18.727
		c4.167,12.165,6.681,24.868,7.41,37.707c1.481,26.084-3.597,53.28-14.363,77.092C342.54,1443.821,343.233,1444.235,343.58,1443.746
		z"/>
	<path style="fill:#627B3B;" d="M342.75,1378.435c0.248-3.573,0.168-7.152,0.425-10.719c0.273-3.779,0.504-7.64-0.131-11.386
		c-1.194-7.051-3.146-13.972-5.841-20.597c-0.922-2.267-1.648-3.973-3.678-5.454c-1.188-0.867-2.606-2.117-4.058-2.487
		c-3.838-0.979-3.79,3.398-3.865,5.903c-0.119,4.002,2.275,7.294,3.848,10.868c1.378,3.132,2.534,6.37,3.542,9.639
		c1.222,3.967,2.478,7.891,3.732,11.848c1.297,4.092,1.831,8.108,2.106,12.385C338.994,1380.957,342.575,1380.954,342.75,1378.435z"
		/>
	<path style="fill:#627B3B;" d="M713.922,1795.232c23.972-8.534,48.447-14.977,74.128-13.034
		c12.384,0.937,24.747,4.129,36.269,8.717c5.959,2.373,11.602,5.353,17.203,8.461c5.529,3.068,10.701,7.751,16.649,9.797
		c4.466,1.537,9.226-4.312,6.377-8.295c-3.787-5.293-10.295-8.669-15.919-11.796c-5.904-3.282-12.279-5.864-18.67-8.039
		c-13.233-4.504-27.034-6.703-40.966-7.411c-26.222-1.331-54.77,3.893-75.294,21.213L713.922,1795.232z"/>
	<path style="fill:#627B3B;" d="M772.405,1804.718c7.028,0.259,14.335,1.242,21.143,3.027c6.861,1.8,13.323,4.744,19.48,8.237
		c6.216,3.526,11.656-5.827,5.589-9.562c-6.954-4.281-14.731-7.028-22.757-8.477c-3.98-0.719-8.106-1.288-12.158-1.294
		c-4.042-0.006-8.224,0.83-12.155,1.731C767.9,1799.215,768.861,1804.587,772.405,1804.718z"/>
	<path style="fill:#627B3B;" d="M1463.241,321.188c37.55,41,79.33,78.581,119.944,116.506
		c41.002,38.288,81.463,77.584,124.413,113.683c24.218,20.355,48.03,41.174,72.306,61.465c0.896,0.749,2.172-0.466,1.304-1.304
		c-40.11-38.696-80.199-77.368-121.396-114.9c-41.53-37.835-82.9-75.851-124.178-113.961c-23.179-21.401-46.366-43.115-70.762-63.12
		C1463.738,318.63,1462.221,320.075,1463.241,321.188z"/>
	<path style="fill:#627B3B;" d="M1029.743,744.801c8.738,0.766,17.798,4.08,26.195,6.514c8.045,2.331,15.924,4.983,23.759,7.944
		c15.413,5.824,30.825,11.415,45.825,18.279c29.613,13.552,58.184,29.74,84.573,48.847c51.956,37.62,95.868,86.257,126.145,142.905
		c17.188,32.157,28.208,66.564,39.7,101.022c0.348,1.044,2.152,0.951,2.037-0.276c-3.023-32.281-14.595-62.949-28.634-91.963
		c-14.332-29.621-32.347-57.346-53.141-82.832c-42.018-51.498-96.968-92.557-157.949-118.961
		c-16.791-7.27-33.996-13.739-51.535-18.973c-9.299-2.775-18.884-4.814-28.335-7.017c-9.362-2.183-19.447-3.116-28.562-6.07
		L1029.743,744.801z"/>
	<path style="fill:#627B3B;" d="M642.415,1778.979c-76.568-67.908-151.461-137.838-224.624-209.4
		c-10.009-9.79-19.981-19.618-29.915-29.485c-9.912-9.844-19.435-21.104-31.213-28.768c-1.339-0.871-3.084,0.867-2.208,2.207
		c6.636,10.151,16.122,18.335,24.749,26.748c9.165,8.939,18.361,17.846,27.589,26.72c18.455,17.75,37.037,35.37,55.726,52.874
		c37.399,35.026,75.501,69.253,114.115,102.934c21.725,18.949,43.603,37.722,65.618,56.333L642.415,1778.979z"/>
	<path style="fill:#627B3B;" d="M908.926,627.493c29.324-26.826,56.173-56.27,83.546-85.074
		c26.815-28.219,53.74-56.328,80.683-84.424c26.937-28.09,54.615-55.481,81.228-83.879c27.192-29.015,54.383-58.03,81.575-87.045
		c30.005-32.016,60.695-63.747,88.225-97.96c2.379-2.956-1.331-6.896-4.237-4.237c-29.302,26.805-56.351,56.177-83.52,85.1
		c-26.657,28.379-53.314,56.758-79.971,85.136c-53.899,57.38-106.039,116.426-159.544,174.184
		c-29.842,32.215-60.614,63.818-88.149,98.036L908.926,627.493z"/>
	<path style="fill:#627B3B;" d="M672.835,1837.393c16.609,15.984,33.166,32.016,50.041,47.719
		c16.876,15.704,32.963,32.215,49.885,47.875c5.002,4.629,12.226,14.753,20.187,11.263c3.859-1.692,6.676-6.128,9.345-9.173
		c3.836-4.378,7.672-8.757,11.509-13.135c15.328-17.494,31.054-34.663,46.795-51.784c18.008-19.586,34.949-40.14,52.646-60.016
		l-0.163-0.163c-15.071,15.445-30.736,30.299-45.795,45.742c-15.063,15.446-29.727,31.3-44.709,46.829
		c-7.204,7.467-14.46,14.875-21.765,22.243c-2.045,2.063-4.09,4.125-6.135,6.188c-0.951,0.959-3.589,4.692-4.939,4.846
		c-2.997,0.342-9.709-7.744-11.893-9.667c-16.123-14.191-33.004-27.471-49.163-41.615c-18.326-16.041-36.929-31.744-55.521-47.477
		L672.835,1837.393z"/>
	<path style="fill:#627B3B;" d="M454.677,1116.942c-17.557,17.072-35.325,33.961-52.855,51.028
		c-17.524,17.062-34.213,35.081-51.291,52.591c-33.905,34.763-67.944,69.394-101.867,104.138
		c-19.427,19.897-38.724,39.923-58.057,59.912c-2.135,2.207-2.476,6.308,0,8.468c26.962,23.532,54.003,47.848,83.083,68.64
		c0.674,0.483,1.32-0.527,0.838-1.086c-11.662-13.515-24.31-26.192-37.137-38.602c-11.438-11.066-22.701-22.321-34.155-33.37
		c65.703-69.377,130.903-139.224,196.339-208.853c9.403-10.006,18.004-20.693,27.236-30.868
		c9.496-10.465,18.954-20.959,28.356-31.509L454.677,1116.942z"/>
	<path style="fill:#627B3B;" d="M1795.035,810.111c-8.192-22.872-15.718-45.54-17.661-69.903
		c-0.898-11.25-0.981-22.534,1.006-33.685c1.91-10.72,7.036-21.041,5.657-32.131c-0.18-1.446-1.532-2.477-2.948-1.692
		c-10.518,5.834-13.255,18.347-15.074,29.307c-2.034,12.262-2.426,24.78-0.98,37.132c2.974,25.402,13.887,50.573,27.261,72.127
		C1793.155,812.649,1795.63,811.772,1795.035,810.111z"/>
	<path style="fill:#627B3B;" d="M1797.212,751.326c-0.475-2.901-0.486-5.641-0.118-8.556c0.326-2.581,0.35-5.756,0.647-8.008
		c0.404-3.074,0.717-5.464,1.516-8.584c0.362-1.412,0.784-2.808,1.269-4.183c0.496-1.406,0.613-2.956,0.795-4.29
		c0.272-1.996-0.183-3.936-2.046-5.026c-1.597-0.934-4.143-0.802-5.393,0.695c-1.377,1.652-2.624,3.17-3.356,5.216
		c-0.56,1.566-1.012,3.177-1.395,4.794c-0.795,3.359-1.397,6.883-1.337,10.34c0.059,3.373,0.245,6.937,1.454,10.105
		c1.179,3.095,2.518,6.201,3.961,9.182C1794.372,755.415,1797.582,753.59,1797.212,751.326z"/>
	<path style="fill:#627B3B;" d="M1774.637,908.185c55.078-51.305,106.541-106.366,156.037-163.043c2.025-2.318,2.006-5.278,0-7.615
		c-15.099-17.587-30.607-34.619-47.103-50.91c-15.899-15.701-32.119-31.932-50.236-45.045c-1.38-0.999-2.563,1.051-1.676,2.172
		c14.076,17.794,30.397,33.986,45.633,50.815c15.26,16.855,30.623,33.625,45.767,50.583c0-2.538,0-5.076,0-7.615
		c-48.475,57.745-98.728,113.931-148.748,170.332L1774.637,908.185z"/>
</g>
</svg>
